<svg width="300" height="300" viewBox="0 0 300 300" fill="none" xmlns="http://www.w3.org/2000/svg">
<g clip-path="url(#clip0_53_154)">
<path d="M150 296.658C231.868 296.658 298.236 230.291 298.236 148.423C298.236 66.5546 231.868 0.187256 150 0.187256C68.1319 0.187256 1.76453 66.5546 1.76453 148.423C1.76453 230.291 68.1319 296.658 150 296.658Z" fill="#0A0A0A"/>
<g opacity="0.498">
<mask id="mask0_53_154" style="mask-type:luminance" maskUnits="userSpaceOnUse" x="11" y="11" width="278" height="278">
<path d="M150 11.6791C226.306 11.6791 288.141 73.515 288.141 149.819V150.179C288.141 226.486 226.306 288.321 150 288.321C73.6944 288.321 11.8589 226.486 11.8589 150.18V149.82C11.8192 73.5551 73.6948 11.6791 150 11.6791Z" fill="white"/>
</mask>
<g mask="url(#mask0_53_154)">
<g opacity="0.25">
<path d="M161.712 202.263L161.791 203.022L124.058 210.977L123.939 210.217L161.712 202.263Z" fill="url(#paint0_radial_53_154)"/>
<path d="M146.642 65.9601L150.04 118.683L191.61 160.373L206.959 107.091L207.519 107.371L191.89 161.652L149.68 119.322L72.7353 148.701L73.7746 147.54L146.642 65.9601ZM149.4 118.602L146.123 67.5189L75.1735 146.942L149.4 118.602Z" fill="url(#paint1_radial_53_154)"/>
<path d="M41.518 114.124L74.1345 147.502L73.7746 148.101L41.118 114.725L41.518 114.124Z" fill="url(#paint2_radial_53_154)"/>
<path d="M146.283 -2.15075L146.482 -1.43127L61.224 40.0594L42.4375 79.5908L41.918 79.1912L60.7843 39.4197L60.9041 39.38L146.283 -2.15075Z" fill="url(#paint3_radial_53_154)"/>
<path d="M165.789 -65.5049L197.486 -1.39106H146.723V66.7603H146.123V-1.43075L69.696 -16.0206L69.7761 -16.7802L146.243 -2.19068L165.789 -65.5049ZM196.367 -2.1506L165.909 -63.8278L146.842 -2.1521L196.367 -2.1506Z" fill="url(#paint4_radial_53_154)"/>
<path d="M253.006 147.422L253.126 148.181L191.81 161.372L191.69 160.613L253.006 147.422Z" fill="url(#paint5_radial_53_154)"/>
<path d="M196.806 -2.22965L197.006 -2.14987L265.995 31.8258L253.286 148.502L252.887 148.142L207.159 107.611L150.08 119.203L161.953 201.824L191.85 160.293L213.194 228.005L229.663 250.467L271.153 239.916L265.957 301.392L265.358 301.312L270.474 240.876L229.463 251.308L212.675 228.365L191.649 161.733L161.552 203.463L149.36 118.564L149.68 118.524L207.279 106.812L207.399 106.892L252.846 147.143L265.356 32.3048L196.966 -1.31131L146.522 67.1198H146.403L42.4772 79.7509L41.5978 114.726L-6.12808 130.075L16.6157 210.217L64.2214 218.292L73.7345 147.021L74.1742 147.541L124.299 210.417V250.908H123.699V210.737L74.1345 148.621L64.7412 219.171L64.4214 219.091L16.1757 210.937L-6.92771 129.514L41.0382 114.126L41.8775 79.07L42.1573 79.0303L146.243 66.3606L196.806 -2.22965Z" fill="url(#paint6_radial_53_154)"/>
<path d="M252.806 147.622L253.326 148.02L213.435 227.925L270.873 240.036L270.794 240.795L212.435 228.484L252.806 147.622Z" fill="url(#paint7_radial_53_154)"/>
<path d="M165.828 -65.0657L165.948 -64.9859L237.178 -25.8938L197.047 -1.39115L196.807 -2.07054L235.74 -25.8533L165.87 -64.226L69.9782 -16.0986L61.3842 39.4613L146.403 66.362H146.483L266.676 31.4242L207.359 107.731L146.443 67.1999L41.6378 114.765L17.0955 209.417L73.976 147.382L74.1359 147.502L162.271 202.543L161.991 202.942L124.738 250.548H229.703L229.783 250.668L266.117 301.432L224.067 336.087L229.263 251.268H123.299L161.272 202.743L74.0134 148.262L15.7737 211.736L41.0779 114.086L41.1977 114.006L145.324 66.7598L60.6239 39.9392L69.3779 -16.7406L165.828 -65.0657ZM207.16 106.771L264.718 32.7444L147.242 66.88L207.16 106.771ZM265.197 301.272L229.823 251.788L224.787 334.608L265.197 301.272Z" fill="url(#paint8_radial_53_154)"/>
<path d="M212.875 227.845L212.995 228.604L124.058 251.268L123.939 250.509L212.875 227.845Z" fill="url(#paint9_radial_53_154)"/>
</g>
<g opacity="0.1">
<path d="M92.3218 192.989L91.8012 193.349L73.4944 150.459L74.0139 150.1L92.3218 192.989Z" fill="url(#paint10_radial_53_154)"/>
<path d="M188.213 129.954L150.32 151.377L133.172 215.213L177.658 216.173V216.932L132.371 215.973L149.799 151.179L102.754 68.1186L103.952 68.998L188.213 129.954ZM150.16 150.659L186.894 129.913L104.793 70.5557L150.16 150.659Z" fill="url(#paint11_radial_53_154)"/>
<path d="M117.983 19.1135L103.993 69.4375L103.434 69.1974L117.384 18.8738L117.983 19.1135Z" fill="url(#paint12_radial_53_154)"/>
<path d="M238.457 107.131L238.017 107.61L179.259 18.513L143.804 8.87964L143.964 8.12047L179.62 17.7935L179.66 17.9134L238.457 107.131Z" fill="url(#paint13_radial_53_154)"/>
<path d="M291.779 109.769L254.765 169.047L238.057 107.851L187.654 130.275L187.454 129.555L237.897 107.131L223.548 10.2021L224.147 10.0421L238.537 106.971L291.779 109.769ZM254.966 167.489L290.579 110.489L238.657 107.81L254.966 167.489Z" fill="url(#paint14_radial_53_154)"/>
<path d="M162.911 284.963L162.391 285.363L132.453 215.812L132.972 215.413L162.911 284.963Z" fill="url(#paint15_radial_53_154)"/>
<path d="M255.165 168.007V168.287L252.727 262.579L162.232 285.683L162.352 285.084L177.301 216.613L149.92 151.659L92.721 193.109L133.292 215.493L90.203 263.539L79.0112 290.759L100.476 337.287L53.2693 351.276L53.1094 350.516L99.5161 336.766L78.2914 290.799L89.7633 262.979L132.173 215.733L91.3622 193.189L150.16 150.58L150.32 150.94L177.94 216.532L177.9 216.652L163.071 284.684L252.167 261.94L254.564 168.527L187.293 130.234L187.253 130.074L143.725 8.96125L117.545 19.4736L90.4828 -33.05L38.6798 20.7515L48.3528 80.789L104.233 68.7972L103.993 69.477L73.9749 150.579L43.9963 163.889L43.7963 163.17L73.5341 149.979L103.194 69.7965L47.9127 81.6691L47.833 81.3092L38 20.4332L90.6427 -34.168L117.823 18.5541L144.045 8.04177L144.164 8.36162L187.773 129.635L255.165 168.007Z" fill="url(#paint16_radial_53_154)"/>
<path d="M162.711 284.804L162.591 285.523L90.3233 263.778L100.277 336.966L99.7173 337.086L89.6049 262.779L162.711 284.804Z" fill="url(#paint17_radial_53_154)"/>
<path d="M291.499 110.008V110.168L286.023 208.858L254.686 168.527L255.124 168.007L285.543 207.099L290.939 110.248L223.786 10.5597L179.857 18.4743L187.933 129.795L187.973 129.835V129.874L253.246 263.179L177.259 216.772L187.212 130.034L117.543 19.3938L39.4394 20.9515L104.073 69.1163L104.033 69.356L92.3214 193.747L91.9615 193.507L44.4753 164.288L79.0105 290.798L78.9304 290.957L53.3094 351.476L13.8176 312.184L78.2918 290.519L43.4367 162.811L91.842 192.589L103.434 69.5181L37.2809 20.2335L117.863 18.6346L117.943 18.7945L187.173 128.715L179.139 17.8346L223.987 9.76047L291.499 110.008ZM177.941 216.332L251.649 261.34L187.733 130.993L177.941 216.332ZM53.1098 350.315L78.0536 291.397L15.0985 312.542L53.1098 350.315Z" fill="url(#paint18_radial_53_154)"/>
<path d="M90.2432 263.099L89.7237 263.459L43.6364 163.729L44.1563 163.369L90.2432 263.099Z" fill="url(#paint19_radial_53_154)"/>
</g>
<path d="M211.716 228.124C211.716 227.205 212.315 226.486 212.995 226.486C213.715 226.486 214.274 227.245 214.274 228.124C214.274 229.044 213.715 229.763 212.995 229.763C212.276 229.803 211.716 229.044 211.716 228.124Z" fill="url(#paint20_radial_53_154)"/>
<path d="M269.595 240.795C269.595 239.876 270.194 239.156 270.874 239.156C271.593 239.156 272.153 239.916 272.153 240.795C272.153 241.714 271.554 242.434 270.874 242.434C270.154 242.434 269.595 241.675 269.595 240.795Z" fill="url(#paint21_radial_53_154)"/>
<path d="M229.264 251.269C229.244 251.079 229.3 250.888 229.42 250.739C229.539 250.589 229.713 250.493 229.903 250.47C230.085 250.511 230.247 250.613 230.363 250.758C230.479 250.903 230.543 251.084 230.543 251.27C230.543 251.456 230.479 251.636 230.363 251.781C230.247 251.927 230.085 252.028 229.903 252.069C229.713 252.047 229.539 251.95 229.42 251.8C229.3 251.651 229.244 251.46 229.264 251.269Z" fill="url(#paint22_radial_53_154)"/>
<path d="M190.412 161.372C190.412 160.453 191.011 159.734 191.691 159.734C192.41 159.734 192.97 160.493 192.97 161.372C192.97 162.292 192.37 163.011 191.691 163.011C190.971 163.051 190.412 162.291 190.412 161.372Z" fill="url(#paint23_radial_53_154)"/>
<path d="M159.793 201.943C159.793 200.584 160.673 199.465 161.752 199.465C162.831 199.465 163.711 200.584 163.711 201.943C163.711 203.302 162.83 204.421 161.752 204.421C160.673 204.421 159.793 203.302 159.793 201.943Z" fill="url(#paint24_radial_53_154)"/>
<path d="M122.9 251.267C122.876 251.008 122.955 250.75 123.12 250.549C123.284 250.347 123.521 250.218 123.779 250.188C124.259 250.188 124.618 250.668 124.618 251.267C124.618 251.867 124.219 252.346 123.779 252.346C123.299 252.386 122.9 251.867 122.9 251.267Z" fill="url(#paint25_radial_53_154)"/>
<path d="M122.66 210.977C122.66 210.057 123.22 209.338 123.939 209.338C124.658 209.338 125.218 210.097 125.218 210.977C125.218 211.896 124.619 212.615 123.939 212.615C123.22 212.615 122.66 211.856 122.66 210.977Z" fill="url(#paint26_radial_53_154)"/>
<path d="M73.2955 148.261C73.2955 147.662 73.6951 147.182 74.1348 147.182C74.6146 147.182 74.9741 147.662 74.9741 148.261C74.9741 148.861 74.5745 149.34 74.1348 149.34C73.655 149.381 73.2955 148.901 73.2955 148.261Z" fill="url(#paint27_radial_53_154)"/>
<path d="M62.9427 218.651C62.9427 217.732 63.5419 217.012 64.2217 217.012C64.9412 217.012 65.5007 217.771 65.5007 218.651C65.5007 219.571 64.9015 220.29 64.2217 220.29C63.5423 220.33 62.9427 219.571 62.9427 218.651Z" fill="url(#paint28_radial_53_154)"/>
<path d="M15.4551 210.977C15.4892 210.81 15.57 210.656 15.6879 210.534C15.8058 210.411 15.9561 210.325 16.1213 210.284C16.2865 210.244 16.4598 210.251 16.6211 210.305C16.7824 210.359 16.9251 210.457 17.0325 210.589C17.1399 210.721 17.2077 210.881 17.2281 211.05C17.2484 211.219 17.2204 211.39 17.1473 211.543C17.0742 211.697 16.959 211.827 16.8151 211.917C16.6712 212.008 16.5046 212.056 16.3345 212.056C16.076 212.026 15.8393 211.897 15.675 211.695C15.5107 211.494 15.4318 211.236 15.4551 210.977Z" fill="url(#paint29_radial_53_154)"/>
<path d="M39.8394 114.806C39.8394 113.886 40.4387 113.167 41.1184 113.167C41.8379 113.167 42.3975 113.926 42.3975 114.806C42.3975 115.725 41.7982 116.444 41.1184 116.444C40.399 116.444 39.8394 115.725 39.8394 114.806Z" fill="url(#paint30_radial_53_154)"/>
<path d="M250.848 147.942C250.848 146.343 251.848 145.024 253.127 145.024C254.406 145.024 255.405 146.343 255.405 147.942C255.405 149.54 254.406 150.86 253.127 150.86C251.848 150.818 250.848 149.541 250.848 147.942Z" fill="url(#paint31_radial_53_154)"/>
<path d="M206.518 107.331C206.495 107.072 206.574 106.814 206.738 106.613C206.903 106.411 207.139 106.281 207.398 106.252C207.646 106.303 207.869 106.438 208.03 106.635C208.19 106.831 208.277 107.077 208.277 107.331C208.277 107.585 208.19 107.83 208.03 108.027C207.869 108.224 207.646 108.359 207.398 108.41C207.139 108.381 206.903 108.251 206.738 108.05C206.574 107.848 206.495 107.59 206.518 107.331Z" fill="url(#paint32_radial_53_154)"/>
<path d="M264.438 32.1453C264.438 31.5461 264.838 31.0659 265.278 31.0659C265.526 31.1171 265.749 31.2524 265.909 31.449C266.07 31.6456 266.157 31.8915 266.157 32.1452C266.157 32.3988 266.07 32.6447 265.909 32.8413C265.749 33.0379 265.526 33.1732 265.278 33.2244C264.838 33.224 264.438 32.7446 264.438 32.1453Z" fill="url(#paint33_radial_53_154)"/>
<path d="M143.685 66.7601C143.685 64.6814 145.004 63.0428 146.603 63.0428C148.202 63.0428 149.521 64.7215 149.521 66.7601C149.521 68.7986 148.202 70.4773 146.603 70.4773C144.964 70.4773 143.685 68.7986 143.685 66.7601Z" fill="url(#paint34_radial_53_154)"/>
<path d="M60.3045 39.6592C60.3045 38.7397 60.9037 38.0202 61.5835 38.0202C62.303 38.0202 62.8625 38.7798 62.8625 39.6592C62.8625 40.5787 62.2633 41.2982 61.5835 41.2982C60.9041 41.3367 60.3045 40.5787 60.3045 39.6592Z" fill="url(#paint35_radial_53_154)"/>
<path d="M41.1183 79.5906C41.1183 78.6711 41.7176 77.9517 42.3974 77.9517C43.1172 77.9517 43.6764 78.7108 43.6764 79.5906C43.6764 80.5101 43.1168 81.2292 42.3974 81.2292C41.7176 81.2693 41.1183 80.5101 41.1183 79.5906Z" fill="url(#paint36_radial_53_154)"/>
</g>
</g>
<g opacity="0.399">
<path d="M24.8499 150C24.8499 219.119 80.8815 275.15 150 275.15C219.119 275.15 275.15 219.119 275.15 150C275.15 80.8815 219.119 24.8499 150 24.8499C80.8815 24.8499 24.8499 80.8815 24.8499 150Z" fill="url(#paint37_radial_53_154)"/>
</g>
<path d="M133.772 202.643L150.04 65.1821L166.308 202.643L150.08 219.231L159.633 228.784L245.372 143.205L150 48.3132L54.6282 143.205L140.447 228.784L150 219.231L133.772 202.643ZM229.383 141.566L175.981 195.168L172.903 169.906L205.52 137.529L171.704 84.4076L229.383 141.566ZM127.136 169.906L124.059 195.168L70.6566 141.566L128.297 84.4072L94.5196 137.529L127.136 169.906Z" fill="#E7E7E7"/>
<path d="M150 238.377L140.446 228.784L136.01 233.261L145.563 242.814L147.802 245.012L145.563 247.251L150 251.688L154.476 247.251L152.238 245.012L154.477 242.814L164.03 233.261L159.593 228.784L150 238.377Z" fill="#E7E7E7"/>
<path fill-rule="evenodd" clip-rule="evenodd" d="M150.002 0.187391C184.662 0.187874 218.25 12.2062 245.042 34.1946C271.834 56.183 290.173 86.781 296.935 120.775C303.696 154.769 298.461 190.056 282.122 220.623C265.783 251.19 239.351 275.146 207.329 288.41C175.308 301.673 139.677 303.423 106.51 293.361C73.3427 283.3 44.6902 262.049 25.4345 233.23C6.17879 204.411 -2.48863 169.807 0.909055 135.314C4.30673 100.821 19.5593 68.5733 44.0679 44.0653C57.9637 30.1328 74.4761 19.0839 92.656 11.5538C110.836 4.02377 130.325 0.160943 150.002 0.187391ZM150.002 12.5072C118.192 12.506 87.3663 23.5346 62.7763 43.7137C38.1863 63.8929 21.3539 91.9741 15.1472 123.173C8.94057 154.371 13.7436 186.756 28.7381 214.811C43.7325 242.865 67.9905 264.852 97.3788 277.025C126.767 289.199 159.467 290.806 189.907 281.572C220.348 272.339 246.645 252.836 264.317 226.387C281.99 199.939 289.945 168.18 286.828 136.524C283.71 104.867 269.712 75.2706 247.219 52.7777C234.466 39.992 219.313 29.8524 202.629 22.9414C185.945 16.0305 168.061 12.4845 150.002 12.5072ZM244.443 55.5563C222.593 33.7059 193.843 20.1076 163.091 17.0784C132.339 14.0492 101.489 21.7766 75.7954 38.9439C50.1022 56.1112 31.1565 81.6562 22.1863 111.226C13.2161 140.796 14.7765 172.562 26.6016 201.111C38.4268 229.659 59.7849 253.224 87.0369 267.791C114.289 282.357 145.749 287.024 176.056 280.995C206.362 274.967 233.641 258.616 253.245 234.729C272.848 210.843 283.562 180.898 283.561 149.997C283.584 132.454 280.14 115.08 273.427 98.8729C266.714 82.6656 256.864 67.9447 244.443 55.5563ZM250.378 49.6211C227.156 26.3968 196.599 11.9432 163.914 8.7231C131.229 5.50296 98.4393 13.7155 71.131 31.9614C43.8226 50.2073 23.6857 77.3576 14.1513 108.786C4.61693 140.215 6.27501 173.977 18.843 204.32C31.4111 234.663 54.1114 259.709 83.0762 275.192C112.041 290.674 145.478 295.634 177.69 289.227C209.902 282.82 238.895 265.442 259.731 240.054C280.566 214.666 291.954 182.839 291.953 149.996C291.978 131.351 288.317 112.885 281.182 95.6596C274.047 78.434 263.579 62.7881 250.378 49.6211Z" fill="#EDEDED" stroke="#242424" stroke-linecap="round" stroke-linejoin="round"/>
</g>
<defs>
<radialGradient id="paint0_radial_53_154" cx="0" cy="0" r="1" gradientUnits="userSpaceOnUse" gradientTransform="translate(150.587 -130.658) rotate(180) scale(109.47 106.774)">
<stop stop-color="#A1A1A1" stop-opacity="0"/>
<stop offset="1" stop-color="#A1A1A1"/>
</radialGradient>
<radialGradient id="paint1_radial_53_154" cx="0" cy="0" r="1" gradientUnits="userSpaceOnUse" gradientTransform="translate(167.623 -2660.38) rotate(180) scale(389.794 1172.55)">
<stop stop-color="#A1A1A1" stop-opacity="0"/>
<stop offset="1" stop-color="#A1A1A1"/>
</radialGradient>
<radialGradient id="paint2_radial_53_154" cx="0" cy="0" r="1" gradientUnits="userSpaceOnUse" gradientTransform="translate(64.3616 -928.706) rotate(180) scale(95.4837 416.336)">
<stop stop-color="#A1A1A1" stop-opacity="0"/>
<stop offset="1" stop-color="#A1A1A1"/>
</radialGradient>
<radialGradient id="paint3_radial_53_154" cx="0" cy="0" r="1" gradientUnits="userSpaceOnUse" gradientTransform="translate(115.531 -2371.9) rotate(180) scale(302.4 1001.61)">
<stop stop-color="#A1A1A1" stop-opacity="0"/>
<stop offset="1" stop-color="#A1A1A1"/>
</radialGradient>
<radialGradient id="paint4_radial_53_154" cx="0" cy="0" r="1" gradientUnits="userSpaceOnUse" gradientTransform="translate(159.66 -3820.74) rotate(180) scale(369.569 1620.7)">
<stop stop-color="#A1A1A1" stop-opacity="0"/>
<stop offset="1" stop-color="#A1A1A1"/>
</radialGradient>
<radialGradient id="paint5_radial_53_154" cx="0" cy="0" r="1" gradientUnits="userSpaceOnUse" gradientTransform="translate(234.941 -343.734) rotate(180) scale(177.673 170.937)">
<stop stop-color="#A1A1A1" stop-opacity="0"/>
<stop offset="1" stop-color="#A1A1A1"/>
</radialGradient>
<radialGradient id="paint6_radial_53_154" cx="0" cy="0" r="1" gradientUnits="userSpaceOnUse" gradientTransform="translate(188.841 -8372.14) rotate(180) scale(804.21 3720.4)">
<stop stop-color="#A1A1A1" stop-opacity="0"/>
<stop offset="1" stop-color="#A1A1A1"/>
</radialGradient>
<radialGradient id="paint7_radial_53_154" cx="0" cy="0" r="1" gradientUnits="userSpaceOnUse" gradientTransform="translate(253.576 -2485.85) rotate(180) scale(169.003 1141.69)">
<stop stop-color="#A1A1A1" stop-opacity="0"/>
<stop offset="1" stop-color="#A1A1A1"/>
</radialGradient>
<radialGradient id="paint8_radial_53_154" cx="0" cy="0" r="1" gradientUnits="userSpaceOnUse" gradientTransform="translate(192.409 -11091.5) rotate(180) scale(725.61 4915.49)">
<stop stop-color="#A1A1A1" stop-opacity="0"/>
<stop offset="1" stop-color="#A1A1A1"/>
</radialGradient>
<radialGradient id="paint9_radial_53_154" cx="0" cy="0" r="1" gradientUnits="userSpaceOnUse" gradientTransform="translate(186.634 -495.091) rotate(180) scale(257.55 287.014)">
<stop stop-color="#A1A1A1" stop-opacity="0"/>
<stop offset="1" stop-color="#A1A1A1"/>
</radialGradient>
<radialGradient id="paint10_radial_53_154" cx="0" cy="0" r="1" gradientUnits="userSpaceOnUse" gradientTransform="translate(86.7489 -1132.55) rotate(180) scale(54.4487 529.948)">
<stop stop-color="#A1A1A1" stop-opacity="0"/>
<stop offset="1" stop-color="#A1A1A1"/>
</radialGradient>
<radialGradient id="paint11_radial_53_154" cx="0" cy="0" r="1" gradientUnits="userSpaceOnUse" gradientTransform="translate(162.917 -4094.09) rotate(180) scale(247.147 1823.47)">
<stop stop-color="#A1A1A1" stop-opacity="0"/>
<stop offset="1" stop-color="#A1A1A1"/>
</radialGradient>
<radialGradient id="paint12_radial_53_154" cx="0" cy="0" r="1" gradientUnits="userSpaceOnUse" gradientTransform="translate(113.677 -1501.38) rotate(180) scale(42.077 619.577)">
<stop stop-color="#A1A1A1" stop-opacity="0"/>
<stop offset="1" stop-color="#A1A1A1"/>
</radialGradient>
<radialGradient id="paint13_radial_53_154" cx="0" cy="0" r="1" gradientUnits="userSpaceOnUse" gradientTransform="translate(210.44 -2838.47) rotate(180) scale(273.735 1219.09)">
<stop stop-color="#A1A1A1" stop-opacity="0"/>
<stop offset="1" stop-color="#A1A1A1"/>
</radialGradient>
<radialGradient id="paint14_radial_53_154" cx="0" cy="0" r="1" gradientUnits="userSpaceOnUse" gradientTransform="translate(260.898 -4445.37) rotate(180) scale(301.708 1948.35)">
<stop stop-color="#A1A1A1" stop-opacity="0"/>
<stop offset="1" stop-color="#A1A1A1"/>
</radialGradient>
<radialGradient id="paint15_radial_53_154" cx="0" cy="0" r="1" gradientUnits="userSpaceOnUse" gradientTransform="translate(153.895 -1769.49) rotate(180) scale(88.0847 857.128)">
<stop stop-color="#A1A1A1" stop-opacity="0"/>
<stop offset="1" stop-color="#A1A1A1"/>
</radialGradient>
<radialGradient id="paint16_radial_53_154" cx="0" cy="0" r="1" gradientUnits="userSpaceOnUse" gradientTransform="translate(190.884 -10626.4) rotate(180) scale(628.041 4723)">
<stop stop-color="#A1A1A1" stop-opacity="0"/>
<stop offset="1" stop-color="#A1A1A1"/>
</radialGradient>
<radialGradient id="paint17_radial_53_154" cx="0" cy="0" r="1" gradientUnits="userSpaceOnUse" gradientTransform="translate(141.072 -1825.57) rotate(180) scale(211.424 910.515)">
<stop stop-color="#A1A1A1" stop-opacity="0"/>
<stop offset="1" stop-color="#A1A1A1"/>
</radialGradient>
<radialGradient id="paint18_radial_53_154" cx="0" cy="0" r="1" gradientUnits="userSpaceOnUse" gradientTransform="translate(209.305 -9386.65) rotate(180) scale(803.054 4187.18)">
<stop stop-color="#A1A1A1" stop-opacity="0"/>
<stop offset="1" stop-color="#A1A1A1"/>
</radialGradient>
<radialGradient id="paint19_radial_53_154" cx="0" cy="0" r="1" gradientUnits="userSpaceOnUse" gradientTransform="translate(76.4476 -2652.37) rotate(180) scale(134.787 1226.45)">
<stop stop-color="#A1A1A1" stop-opacity="0"/>
<stop offset="1" stop-color="#A1A1A1"/>
</radialGradient>
<radialGradient id="paint20_radial_53_154" cx="0" cy="0" r="1" gradientUnits="userSpaceOnUse" gradientTransform="translate(213.517 47.8726) rotate(180) scale(7.39789 40.1837)">
<stop stop-color="#A1A1A1" stop-opacity="0"/>
<stop offset="1" stop-color="#A1A1A1"/>
</radialGradient>
<radialGradient id="paint21_radial_53_154" cx="0" cy="0" r="1" gradientUnits="userSpaceOnUse" gradientTransform="translate(271.396 64.4258) rotate(180) scale(7.39789 40.1655)">
<stop stop-color="#A1A1A1" stop-opacity="0"/>
<stop offset="1" stop-color="#A1A1A1"/>
</radialGradient>
<radialGradient id="paint22_radial_53_154" cx="0" cy="0" r="1" gradientUnits="userSpaceOnUse" gradientTransform="translate(230.163 124.582) rotate(180) scale(3.71029 19.5917)">
<stop stop-color="#A1A1A1" stop-opacity="0"/>
<stop offset="1" stop-color="#A1A1A1"/>
</radialGradient>
<radialGradient id="paint23_radial_53_154" cx="0" cy="0" r="1" gradientUnits="userSpaceOnUse" gradientTransform="translate(192.213 -39.1154) rotate(180) scale(7.39789 40.1791)">
<stop stop-color="#A1A1A1" stop-opacity="0"/>
<stop offset="1" stop-color="#A1A1A1"/>
</radialGradient>
<radialGradient id="paint24_radial_53_154" cx="0" cy="0" r="1" gradientUnits="userSpaceOnUse" gradientTransform="translate(162.551 -32.6986) rotate(180) scale(11.3286 60.7347)">
<stop stop-color="#A1A1A1" stop-opacity="0"/>
<stop offset="1" stop-color="#A1A1A1"/>
</radialGradient>
<radialGradient id="paint25_radial_53_154" cx="0" cy="0" r="1" gradientUnits="userSpaceOnUse" gradientTransform="translate(124.108 109.018) rotate(180) scale(4.98213 26.4743)">
<stop stop-color="#A1A1A1" stop-opacity="0"/>
<stop offset="1" stop-color="#A1A1A1"/>
</radialGradient>
<radialGradient id="paint26_radial_53_154" cx="0" cy="0" r="1" gradientUnits="userSpaceOnUse" gradientTransform="translate(124.461 25.5736) rotate(180) scale(7.39789 40.1609)">
<stop stop-color="#A1A1A1" stop-opacity="0"/>
<stop offset="1" stop-color="#A1A1A1"/>
</radialGradient>
<radialGradient id="paint27_radial_53_154" cx="0" cy="0" r="1" gradientUnits="userSpaceOnUse" gradientTransform="translate(74.4772 -25.2245) rotate(180) scale(4.85466 26.4721)">
<stop stop-color="#A1A1A1" stop-opacity="0"/>
<stop offset="1" stop-color="#A1A1A1"/>
</radialGradient>
<radialGradient id="paint28_radial_53_154" cx="0" cy="0" r="1" gradientUnits="userSpaceOnUse" gradientTransform="translate(64.7435 35.524) rotate(180) scale(7.39789 40.184)">
<stop stop-color="#A1A1A1" stop-opacity="0"/>
<stop offset="1" stop-color="#A1A1A1"/>
</radialGradient>
<radialGradient id="paint29_radial_53_154" cx="0" cy="0" r="1" gradientUnits="userSpaceOnUse" gradientTransform="translate(16.7066 66.7896) rotate(180) scale(5.15772 22.0286)">
<stop stop-color="#A1A1A1" stop-opacity="0"/>
<stop offset="1" stop-color="#A1A1A1"/>
</radialGradient>
<radialGradient id="paint30_radial_53_154" cx="0" cy="0" r="1" gradientUnits="userSpaceOnUse" gradientTransform="translate(41.6403 -99.7667) rotate(180) scale(7.39789 40.1609)">
<stop stop-color="#A1A1A1" stop-opacity="0"/>
<stop offset="1" stop-color="#A1A1A1"/>
</radialGradient>
<radialGradient id="paint31_radial_53_154" cx="0" cy="0" r="1" gradientUnits="userSpaceOnUse" gradientTransform="translate(254.056 -127.422) rotate(180) scale(13.1776 71.5057)">
<stop stop-color="#A1A1A1" stop-opacity="0"/>
<stop offset="1" stop-color="#A1A1A1"/>
</radialGradient>
<radialGradient id="paint32_radial_53_154" cx="0" cy="0" r="1" gradientUnits="userSpaceOnUse" gradientTransform="translate(207.756 -78.516) rotate(180) scale(5.09842 26.448)">
<stop stop-color="#A1A1A1" stop-opacity="0"/>
<stop offset="1" stop-color="#A1A1A1"/>
</radialGradient>
<radialGradient id="paint33_radial_53_154" cx="0" cy="0" r="1" gradientUnits="userSpaceOnUse" gradientTransform="translate(265.648 -176.505) rotate(180) scale(4.97103 26.4481)">
<stop stop-color="#A1A1A1" stop-opacity="0"/>
<stop offset="1" stop-color="#A1A1A1"/>
</radialGradient>
<radialGradient id="paint34_radial_53_154" cx="0" cy="0" r="1" gradientUnits="userSpaceOnUse" gradientTransform="translate(147.793 -277.506) rotate(180) scale(16.8776 91.0974)">
<stop stop-color="#A1A1A1" stop-opacity="0"/>
<stop offset="1" stop-color="#A1A1A1"/>
</radialGradient>
<radialGradient id="paint35_radial_53_154" cx="0" cy="0" r="1" gradientUnits="userSpaceOnUse" gradientTransform="translate(62.1054 -197.754) rotate(180) scale(7.39789 40.1827)">
<stop stop-color="#A1A1A1" stop-opacity="0"/>
<stop offset="1" stop-color="#A1A1A1"/>
</radialGradient>
<radialGradient id="paint36_radial_53_154" cx="0" cy="0" r="1" gradientUnits="userSpaceOnUse" gradientTransform="translate(42.9192 -145.704) rotate(180) scale(7.39789 40.1795)">
<stop stop-color="#A1A1A1" stop-opacity="0"/>
<stop offset="1" stop-color="#A1A1A1"/>
</radialGradient>
<radialGradient id="paint37_radial_53_154" cx="0" cy="0" r="1" gradientUnits="userSpaceOnUse" gradientTransform="translate(154.539 -20.5148) rotate(118.579) scale(146.926)">
<stop stop-color="#EDEDED"/>
<stop offset="1" stop-color="white" stop-opacity="0"/>
</radialGradient>
<clipPath id="clip0_53_154">
<rect width="300" height="300" fill="white"/>
</clipPath>
</defs>
</svg>
